<svg xmlns="http://www.w3.org/2000/svg" width="1440" height="900" viewBox="0 0 1440 900" role="img" aria-labelledby="title desc">
  <title id="title">Expanded desktop overlay navigation drawer mockup</title>
  <desc id="desc">A SoundAtlas desktop screen with a left overlay navigation drawer in expanded state above a dimmed map-first workspace.</desc>
  <rect width="1440" height="900" fill="#eef2f5"/>
  <rect x="24" y="24" width="1392" height="852" rx="8" fill="#ffffff" stroke="#d9e0e7"/>
  <rect x="24" y="24" width="1392" height="76" rx="8" fill="#ffffff"/>
  <text x="64" y="54" font-family="Inter, Arial, sans-serif" font-size="12" font-weight="800" fill="#6b7785">SOUNDATLAS</text>
  <text x="64" y="80" font-family="Inter, Arial, sans-serif" font-size="22" font-weight="800" fill="#17202a">New York 1965-1985</text>
  <rect x="24" y="100" width="1040" height="616" fill="#dfe9e2"/>
  <path d="M110 610 C210 520 260 470 330 500 C410 535 470 405 580 430 C720 465 820 340 1010 390" fill="none" stroke="#8ca79a" stroke-width="18" opacity=".55"/>
  <circle cx="330" cy="500" r="13" fill="#e4572e" stroke="#ffffff" stroke-width="4"/>
  <circle cx="580" cy="430" r="10" fill="#314151" stroke="#ffffff" stroke-width="4"/>
  <circle cx="760" cy="390" r="10" fill="#314151" stroke="#ffffff" stroke-width="4"/>
  <rect x="64" y="616" width="360" height="74" rx="8" fill="#ffffff" stroke="#d9e0e7"/>
  <rect x="64" y="616" width="6" height="74" rx="3" fill="#e4572e"/>
  <text x="88" y="644" font-family="Inter, Arial, sans-serif" font-size="11" font-weight="800" fill="#6b7785">SELECTED PLACE</text>
  <text x="88" y="668" font-family="Inter, Arial, sans-serif" font-size="18" font-weight="800" fill="#17202a">1520 Sedgwick Avenue</text>
  <rect x="1064" y="100" width="352" height="776" fill="#fbfcfd" stroke="#d9e0e7"/>
  <rect x="1092" y="132" width="296" height="180" rx="8" fill="#ffffff" stroke="#e0e6ec"/>
  <text x="1116" y="166" font-family="Inter, Arial, sans-serif" font-size="12" font-weight="800" fill="#6b7785">SELECTED EVENT</text>
  <text x="1116" y="202" font-family="Inter, Arial, sans-serif" font-size="24" font-weight="800" fill="#17202a">DJ Kool Herc's party</text>
  <rect x="24" y="716" width="1040" height="160" fill="#ffffff" stroke="#d9e0e7"/>
  <line x1="84" y1="796" x2="1004" y2="796" stroke="#cfd7df" stroke-width="4"/>
  <circle cx="220" cy="796" r="12" fill="#e4572e"/>
  <circle cx="420" cy="796" r="9" fill="#314151"/>
  <circle cx="730" cy="796" r="9" fill="#314151"/>
  <rect width="1440" height="900" fill="#17202a" opacity=".36"/>
  <rect x="0" y="0" width="320" height="900" fill="#ffffff"/>
  <rect x="0" y="0" width="320" height="900" fill="none" stroke="#cfd7df"/>
  <text x="24" y="34" font-family="Inter, Arial, sans-serif" font-size="11" font-weight="800" fill="#6b7785">SOUNDATLAS</text>
  <text x="24" y="60" font-family="Inter, Arial, sans-serif" font-size="18" font-weight="800" fill="#17202a">Navigation</text>
  <rect x="252" y="20" width="32" height="32" rx="8" fill="#f3f6f8" stroke="#d9e0e7"/>
  <path d="M262 30 L274 42 M274 30 L262 42" stroke="#314151" stroke-width="2" stroke-linecap="round"/>
  <text x="24" y="112" font-family="Inter, Arial, sans-serif" font-size="11" font-weight="800" fill="#6b7785">EXPLORE</text>
  <rect x="12" y="128" width="296" height="44" rx="8" fill="#fff7f4"/>
  <rect x="12" y="128" width="4" height="44" rx="2" fill="#e4572e"/>
  <circle cx="40" cy="150" r="9" fill="none" stroke="#7e2d19" stroke-width="2"/>
  <text x="68" y="156" font-family="Inter, Arial, sans-serif" font-size="14" font-weight="800" fill="#7e2d19">Map</text>
  <circle cx="40" cy="198" r="9" fill="none" stroke="#536170" stroke-width="2"/>
  <text x="68" y="204" font-family="Inter, Arial, sans-serif" font-size="14" font-weight="700" fill="#314151">Routes</text>
  <circle cx="40" cy="246" r="9" fill="none" stroke="#536170" stroke-width="2"/>
  <text x="68" y="252" font-family="Inter, Arial, sans-serif" font-size="14" font-weight="700" fill="#314151">Timeline</text>
  <circle cx="40" cy="294" r="9" fill="none" stroke="#536170" stroke-width="2"/>
  <text x="68" y="300" font-family="Inter, Arial, sans-serif" font-size="14" font-weight="700" fill="#314151">Places</text>
  <text x="24" y="360" font-family="Inter, Arial, sans-serif" font-size="11" font-weight="800" fill="#6b7785">RESEARCH</text>
  <circle cx="40" cy="398" r="9" fill="none" stroke="#536170" stroke-width="2"/>
  <text x="68" y="404" font-family="Inter, Arial, sans-serif" font-size="14" font-weight="700" fill="#314151">Events</text>
  <circle cx="40" cy="446" r="9" fill="none" stroke="#536170" stroke-width="2"/>
  <text x="68" y="452" font-family="Inter, Arial, sans-serif" font-size="14" font-weight="700" fill="#314151">Connections</text>
  <circle cx="40" cy="494" r="9" fill="none" stroke="#8a96a3" stroke-width="2" opacity=".48"/>
  <text x="68" y="500" font-family="Inter, Arial, sans-serif" font-size="14" font-weight="700" fill="#8a96a3" opacity=".6">Media Review</text>
  <text x="208" y="500" font-family="Inter, Arial, sans-serif" font-size="11" font-weight="800" fill="#8a96a3" opacity=".6">ADMIN</text>
  <line x1="20" y1="808" x2="300" y2="808" stroke="#d9e0e7"/>
  <text x="24" y="838" font-family="Inter, Arial, sans-serif" font-size="11" font-weight="800" fill="#6b7785">ACCESS</text>
  <text x="24" y="864" font-family="Inter, Arial, sans-serif" font-size="14" font-weight="800" fill="#314151">Public explorer</text>
</svg>
