<svg xmlns="http://www.w3.org/2000/svg" width="1440" height="900" viewBox="0 0 1440 900" role="img" aria-labelledby="title desc">
  <title id="title">Collapsed desktop overlay navigation drawer mockup</title>
  <desc id="desc">A SoundAtlas desktop screen with a left overlay navigation drawer in collapsed icon-only state, with tooltip beside the active icon.</desc>
  <rect width="1440" height="900" fill="#eef2f5"/>
  <rect x="24" y="24" width="1392" height="852" rx="8" fill="#ffffff" stroke="#d9e0e7"/>
  <rect x="24" y="24" width="1392" height="76" rx="8" fill="#ffffff"/>
  <text x="64" y="54" font-family="Inter, Arial, sans-serif" font-size="12" font-weight="800" fill="#6b7785">SOUNDATLAS</text>
  <text x="64" y="80" font-family="Inter, Arial, sans-serif" font-size="22" font-weight="800" fill="#17202a">New York 1965-1985</text>
  <rect x="24" y="100" width="1040" height="616" fill="#dfe9e2"/>
  <path d="M110 610 C210 520 260 470 330 500 C410 535 470 405 580 430 C720 465 820 340 1010 390" fill="none" stroke="#8ca79a" stroke-width="18" opacity=".55"/>
  <circle cx="330" cy="500" r="13" fill="#e4572e" stroke="#ffffff" stroke-width="4"/>
  <circle cx="580" cy="430" r="10" fill="#314151" stroke="#ffffff" stroke-width="4"/>
  <circle cx="760" cy="390" r="10" fill="#314151" stroke="#ffffff" stroke-width="4"/>
  <rect x="1064" y="100" width="352" height="776" fill="#fbfcfd" stroke="#d9e0e7"/>
  <rect x="24" y="716" width="1040" height="160" fill="#ffffff" stroke="#d9e0e7"/>
  <rect width="1440" height="900" fill="#17202a" opacity=".36"/>
  <rect x="0" y="0" width="72" height="900" fill="#ffffff"/>
  <rect x="0" y="0" width="72" height="900" fill="none" stroke="#cfd7df"/>
  <rect x="20" y="20" width="32" height="32" rx="8" fill="#f3f6f8" stroke="#d9e0e7"/>
  <text x="30" y="42" font-family="Inter, Arial, sans-serif" font-size="16" font-weight="900" fill="#17202a">S</text>
  <rect x="20" y="72" width="32" height="32" rx="8" fill="#ffffff" stroke="#d9e0e7"/>
  <path d="M28 82 L44 94 M44 82 L28 94" stroke="#314151" stroke-width="2" stroke-linecap="round"/>
  <rect x="12" y="128" width="48" height="48" rx="8" fill="#fff7f4"/>
  <rect x="12" y="128" width="4" height="48" rx="2" fill="#e4572e"/>
  <circle cx="36" cy="152" r="10" fill="none" stroke="#7e2d19" stroke-width="2"/>
  <rect x="84" y="136" width="88" height="32" rx="8" fill="#17202a"/>
  <text x="108" y="157" font-family="Inter, Arial, sans-serif" font-size="12" font-weight="800" fill="#ffffff">Map</text>
  <path d="M84 152 L72 144 L72 160 Z" fill="#17202a"/>
  <rect x="12" y="188" width="48" height="48" rx="8" fill="#ffffff"/>
  <circle cx="36" cy="212" r="10" fill="none" stroke="#536170" stroke-width="2"/>
  <rect x="12" y="248" width="48" height="48" rx="8" fill="#ffffff"/>
  <circle cx="36" cy="272" r="10" fill="none" stroke="#536170" stroke-width="2"/>
  <rect x="12" y="308" width="48" height="48" rx="8" fill="#ffffff"/>
  <circle cx="36" cy="332" r="10" fill="none" stroke="#536170" stroke-width="2"/>
  <line x1="16" y1="384" x2="56" y2="384" stroke="#d9e0e7"/>
  <rect x="12" y="408" width="48" height="48" rx="8" fill="#ffffff"/>
  <circle cx="36" cy="432" r="10" fill="none" stroke="#536170" stroke-width="2"/>
  <rect x="12" y="468" width="48" height="48" rx="8" fill="#ffffff"/>
  <circle cx="36" cy="492" r="10" fill="none" stroke="#536170" stroke-width="2"/>
  <rect x="12" y="528" width="48" height="48" rx="8" fill="#ffffff"/>
  <circle cx="36" cy="552" r="10" fill="none" stroke="#8a96a3" stroke-width="2" opacity=".48"/>
  <line x1="16" y1="808" x2="56" y2="808" stroke="#d9e0e7"/>
  <rect x="12" y="824" width="48" height="48" rx="8" fill="#fff1ed"/>
  <circle cx="36" cy="848" r="10" fill="none" stroke="#bb3f22" stroke-width="2"/>
</svg>
