<svg xmlns="http://www.w3.org/2000/svg" width="1440" height="900" viewBox="0 0 1440 900" role="img" aria-labelledby="title desc">
  <title id="title">SoundAtlas desktop main screen mockup with event inspector media tab</title>
  <desc id="desc">A desktop map-first layout with the right-side event inspector showing a media tab with fixed preview, thumbnails, and source links.</desc>

  <rect width="1440" height="900" fill="#eef2f5"/>
  <rect x="24" y="24" width="1392" height="852" rx="8" fill="#ffffff" stroke="#d9e0e7"/>

  <rect x="24" y="24" width="1392" height="74" rx="8" fill="#ffffff"/>
  <line x1="24" y1="98" x2="1416" y2="98" stroke="#d9e0e7"/>
  <rect x="48" y="45" width="36" height="32" rx="8" fill="#ffffff" stroke="#cfd7df"/>
  <path d="M59 54 H73 M59 61 H73 M59 68 H73" stroke="#314151" stroke-width="2" stroke-linecap="round"/>
  <text x="104" y="54" font-family="Inter, Arial, sans-serif" font-size="11" font-weight="800" fill="#6b7785">SOUNDATLAS</text>
  <text x="104" y="79" font-family="Inter, Arial, sans-serif" font-size="21" font-weight="800" fill="#17202a">New York 1965-1985</text>
  <text x="424" y="54" font-family="Inter, Arial, sans-serif" font-size="11" font-weight="800" fill="#6b7785">ACTIVE ROUTE</text>
  <text x="424" y="78" font-family="Inter, Arial, sans-serif" font-size="17" font-weight="800" fill="#17202a">Birth of Hip-Hop: Bronx 1970-1985</text>
  <rect x="1136" y="43" width="252" height="34" rx="8" fill="#f8fafb" stroke="#d9e0e7"/>
  <circle cx="1160" cy="60" r="5" fill="#2a9d8f"/>
  <text x="1174" y="65" font-family="Inter, Arial, sans-serif" font-size="12" font-weight="700" fill="#536170">9 events · 3 media drafts</text>

  <rect x="24" y="98" width="1018" height="618" fill="#dfe9e2"/>
  <path d="M92 605 C198 532 242 459 335 494 C426 528 465 405 591 425 C712 443 798 338 1007 388" fill="none" stroke="#8ca79a" stroke-width="18" opacity=".55"/>
  <path d="M135 220 C235 172 300 214 394 188 C482 165 534 214 618 190 C698 166 752 208 834 184 C910 162 967 185 1018 158" fill="none" stroke="#a2b6ab" stroke-width="10" opacity=".45"/>
  <circle cx="335" cy="494" r="15" fill="#e4572e" stroke="#ffffff" stroke-width="5"/>
  <circle cx="591" cy="425" r="10" fill="#314151" stroke="#ffffff" stroke-width="4"/>
  <circle cx="742" cy="392" r="10" fill="#314151" stroke="#ffffff" stroke-width="4"/>
  <circle cx="828" cy="356" r="10" fill="#314151" stroke="#ffffff" stroke-width="4"/>
  <rect x="64" y="616" width="382" height="72" rx="8" fill="#ffffff" stroke="#d9e0e7"/>
  <rect x="64" y="616" width="6" height="72" rx="3" fill="#e4572e"/>
  <text x="88" y="643" font-family="Inter, Arial, sans-serif" font-size="11" font-weight="800" fill="#6b7785">SELECTED EVENT ON MAP</text>
  <text x="88" y="667" font-family="Inter, Arial, sans-serif" font-size="18" font-weight="800" fill="#17202a">DJ Kool Herc's back-to-school party</text>

  <rect x="24" y="716" width="1018" height="160" fill="#ffffff"/>
  <line x1="64" y1="797" x2="1000" y2="797" stroke="#cfd7df" stroke-width="4"/>
  <circle cx="202" cy="797" r="12" fill="#e4572e"/>
  <circle cx="390" cy="797" r="9" fill="#314151"/>
  <circle cx="602" cy="797" r="9" fill="#314151"/>
  <circle cx="790" cy="797" r="9" fill="#314151"/>
  <rect x="166" y="738" width="180" height="38" rx="8" fill="#fff7f4" stroke="#efc8be"/>
  <text x="186" y="762" font-family="Inter, Arial, sans-serif" font-size="12" font-weight="800" fill="#7e2d19">1973 · selected</text>
  <text x="64" y="846" font-family="Inter, Arial, sans-serif" font-size="12" font-weight="700" fill="#6b7785">Timeline remains quiet while media is inspected.</text>

  <rect x="1042" y="98" width="374" height="778" fill="#fbfcfd" stroke="#d9e0e7"/>
  <rect x="1066" y="122" width="326" height="96" rx="8" fill="#ffffff" stroke="#d9e0e7"/>
  <text x="1088" y="151" font-family="Inter, Arial, sans-serif" font-size="11" font-weight="800" fill="#6b7785">EVENT INSPECTOR</text>
  <text x="1088" y="179" font-family="Inter, Arial, sans-serif" font-size="20" font-weight="800" fill="#17202a">DJ Kool Herc's party</text>
  <text x="1088" y="202" font-family="Inter, Arial, sans-serif" font-size="12" font-weight="700" fill="#536170">1520 Sedgwick Avenue · 1973 · Bronx</text>

  <rect x="1066" y="230" width="326" height="42" rx="8" fill="#eef2f5"/>
  <text x="1104" y="256" font-family="Inter, Arial, sans-serif" font-size="12" font-weight="800" fill="#536170">Story</text>
  <rect x="1180" y="234" width="104" height="34" rx="7" fill="#ffffff" stroke="#d9e0e7"/>
  <text x="1212" y="256" font-family="Inter, Arial, sans-serif" font-size="12" font-weight="800" fill="#17202a">Media</text>
  <text x="1320" y="256" font-family="Inter, Arial, sans-serif" font-size="12" font-weight="800" fill="#536170">Sources</text>

  <rect x="1066" y="292" width="326" height="184" rx="8" fill="#17202a"/>
  <rect x="1086" y="312" width="286" height="126" rx="6" fill="#314151"/>
  <path d="M1112 414 L1166 360 L1216 405 L1248 378 L1348 438 H1112 Z" fill="#8ca79a"/>
  <circle cx="1190" cy="350" r="14" fill="#e9c46a"/>
  <rect x="1086" y="448" width="122" height="16" rx="8" fill="#ffffff" opacity=".9"/>
  <text x="1100" y="460" font-family="Inter, Arial, sans-serif" font-size="10" font-weight="800" fill="#17202a">PRIMARY PREVIEW</text>
  <text x="1220" y="462" font-family="Inter, Arial, sans-serif" font-size="11" font-weight="800" fill="#ffffff">Open full view</text>

  <text x="1068" y="510" font-family="Inter, Arial, sans-serif" font-size="12" font-weight="800" fill="#6b7785">IMAGES</text>
  <rect x="1066" y="526" width="96" height="70" rx="8" fill="#ffffff" stroke="#e0e6ec"/>
  <rect x="1074" y="534" width="80" height="38" rx="5" fill="#dfe9e2"/>
  <text x="1078" y="588" font-family="Inter, Arial, sans-serif" font-size="10" font-weight="800" fill="#536170">Sedgwick</text>
  <rect x="1178" y="526" width="96" height="70" rx="8" fill="#ffffff" stroke="#e0e6ec"/>
  <rect x="1186" y="534" width="80" height="38" rx="5" fill="#f0e1d8"/>
  <text x="1190" y="588" font-family="Inter, Arial, sans-serif" font-size="10" font-weight="800" fill="#536170">Flyer</text>
  <rect x="1290" y="526" width="96" height="70" rx="8" fill="#ffffff" stroke="#e0e6ec"/>
  <rect x="1298" y="534" width="80" height="38" rx="5" fill="#d8e3f0"/>
  <text x="1302" y="588" font-family="Inter, Arial, sans-serif" font-size="10" font-weight="800" fill="#536170">Location</text>

  <text x="1068" y="628" font-family="Inter, Arial, sans-serif" font-size="12" font-weight="800" fill="#6b7785">MEDIA LINKS</text>
  <rect x="1066" y="644" width="326" height="58" rx="8" fill="#ffffff" stroke="#d9e0e7"/>
  <circle cx="1094" cy="673" r="15" fill="#e4572e"/>
  <path d="M1089 664 L1104 673 L1089 682 Z" fill="#ffffff"/>
  <text x="1124" y="668" font-family="Inter, Arial, sans-serif" font-size="13" font-weight="800" fill="#17202a">Interview or archival video</text>
  <text x="1124" y="688" font-family="Inter, Arial, sans-serif" font-size="11" font-weight="700" fill="#536170">External link · opens outside the app</text>
  <rect x="1066" y="714" width="326" height="58" rx="8" fill="#ffffff" stroke="#d9e0e7"/>
  <circle cx="1094" cy="743" r="15" fill="#314151"/>
  <path d="M1089 734 L1104 743 L1089 752 Z" fill="#ffffff"/>
  <text x="1124" y="738" font-family="Inter, Arial, sans-serif" font-size="13" font-weight="800" fill="#17202a">Related documentary segment</text>
  <text x="1124" y="758" font-family="Inter, Arial, sans-serif" font-size="11" font-weight="700" fill="#536170">Reviewed public media</text>

  <rect x="1066" y="794" width="326" height="58" rx="8" fill="#f8fafb" stroke="#d9e0e7"/>
  <text x="1088" y="820" font-family="Inter, Arial, sans-serif" font-size="12" font-weight="800" fill="#6b7785">EMPTY / ERROR PATTERN</text>
  <text x="1088" y="840" font-family="Inter, Arial, sans-serif" font-size="12" font-weight="700" fill="#536170">Use fixed-height messages, not page expansion.</text>
</svg>
