<svg xmlns="http://www.w3.org/2000/svg" width="1440" height="900" viewBox="0 0 1440 900" role="img" aria-labelledby="title desc">
  <title id="title">SoundAtlas desktop main screen mockup with event inspector story tab</title>
  <desc id="desc">A desktop map-first layout with a compact header, large map, quiet timeline, and right-side event inspector showing the story tab.</desc>

  <rect width="1440" height="900" fill="#eef2f5"/>
  <rect x="24" y="24" width="1392" height="852" rx="8" fill="#ffffff" stroke="#d9e0e7"/>

  <rect x="24" y="24" width="1392" height="74" rx="8" fill="#ffffff"/>
  <line x1="24" y1="98" x2="1416" y2="98" stroke="#d9e0e7"/>
  <rect x="48" y="45" width="36" height="32" rx="8" fill="#ffffff" stroke="#cfd7df"/>
  <path d="M59 54 H73 M59 61 H73 M59 68 H73" stroke="#314151" stroke-width="2" stroke-linecap="round"/>
  <text x="104" y="54" font-family="Inter, Arial, sans-serif" font-size="11" font-weight="800" fill="#6b7785">SOUNDATLAS</text>
  <text x="104" y="79" font-family="Inter, Arial, sans-serif" font-size="21" font-weight="800" fill="#17202a">New York 1965-1985</text>
  <text x="424" y="54" font-family="Inter, Arial, sans-serif" font-size="11" font-weight="800" fill="#6b7785">ACTIVE ROUTE</text>
  <text x="424" y="78" font-family="Inter, Arial, sans-serif" font-size="17" font-weight="800" fill="#17202a">Birth of Hip-Hop: Bronx 1970-1985</text>
  <rect x="1136" y="43" width="252" height="34" rx="8" fill="#f8fafb" stroke="#d9e0e7"/>
  <circle cx="1160" cy="60" r="5" fill="#2a9d8f"/>
  <text x="1174" y="65" font-family="Inter, Arial, sans-serif" font-size="12" font-weight="700" fill="#536170">9 events · 3 media drafts</text>

  <rect x="24" y="98" width="1018" height="618" fill="#dfe9e2"/>
  <path d="M92 605 C198 532 242 459 335 494 C426 528 465 405 591 425 C712 443 798 338 1007 388" fill="none" stroke="#8ca79a" stroke-width="18" opacity=".55"/>
  <path d="M135 220 C235 172 300 214 394 188 C482 165 534 214 618 190 C698 166 752 208 834 184 C910 162 967 185 1018 158" fill="none" stroke="#a2b6ab" stroke-width="10" opacity=".45"/>
  <circle cx="335" cy="494" r="15" fill="#e4572e" stroke="#ffffff" stroke-width="5"/>
  <circle cx="591" cy="425" r="10" fill="#314151" stroke="#ffffff" stroke-width="4"/>
  <circle cx="742" cy="392" r="10" fill="#314151" stroke="#ffffff" stroke-width="4"/>
  <circle cx="828" cy="356" r="10" fill="#314151" stroke="#ffffff" stroke-width="4"/>
  <rect x="64" y="616" width="382" height="72" rx="8" fill="#ffffff" stroke="#d9e0e7"/>
  <rect x="64" y="616" width="6" height="72" rx="3" fill="#e4572e"/>
  <text x="88" y="643" font-family="Inter, Arial, sans-serif" font-size="11" font-weight="800" fill="#6b7785">SELECTED EVENT ON MAP</text>
  <text x="88" y="667" font-family="Inter, Arial, sans-serif" font-size="18" font-weight="800" fill="#17202a">DJ Kool Herc's back-to-school party</text>

  <rect x="24" y="716" width="1018" height="160" fill="#ffffff"/>
  <line x1="64" y1="797" x2="1000" y2="797" stroke="#cfd7df" stroke-width="4"/>
  <circle cx="202" cy="797" r="12" fill="#e4572e"/>
  <circle cx="390" cy="797" r="9" fill="#314151"/>
  <circle cx="602" cy="797" r="9" fill="#314151"/>
  <circle cx="790" cy="797" r="9" fill="#314151"/>
  <rect x="166" y="738" width="180" height="38" rx="8" fill="#fff7f4" stroke="#efc8be"/>
  <text x="186" y="762" font-family="Inter, Arial, sans-serif" font-size="12" font-weight="800" fill="#7e2d19">1973 · selected</text>
  <text x="64" y="846" font-family="Inter, Arial, sans-serif" font-size="12" font-weight="700" fill="#6b7785">Timeline stays compact: sequence context, not another content feed.</text>

  <rect x="1042" y="98" width="374" height="778" fill="#fbfcfd" stroke="#d9e0e7"/>
  <rect x="1066" y="122" width="326" height="96" rx="8" fill="#ffffff" stroke="#d9e0e7"/>
  <text x="1088" y="151" font-family="Inter, Arial, sans-serif" font-size="11" font-weight="800" fill="#6b7785">EVENT INSPECTOR</text>
  <text x="1088" y="179" font-family="Inter, Arial, sans-serif" font-size="20" font-weight="800" fill="#17202a">DJ Kool Herc's party</text>
  <text x="1088" y="202" font-family="Inter, Arial, sans-serif" font-size="12" font-weight="700" fill="#536170">1520 Sedgwick Avenue · 1973 · Bronx</text>

  <rect x="1066" y="230" width="326" height="42" rx="8" fill="#eef2f5"/>
  <rect x="1070" y="234" width="104" height="34" rx="7" fill="#ffffff" stroke="#d9e0e7"/>
  <text x="1104" y="256" font-family="Inter, Arial, sans-serif" font-size="12" font-weight="800" fill="#17202a">Story</text>
  <text x="1212" y="256" font-family="Inter, Arial, sans-serif" font-size="12" font-weight="800" fill="#536170">Media</text>
  <text x="1320" y="256" font-family="Inter, Arial, sans-serif" font-size="12" font-weight="800" fill="#536170">Sources</text>

  <rect x="1066" y="292" width="326" height="136" rx="8" fill="#ffffff" stroke="#d9e0e7"/>
  <text x="1088" y="322" font-family="Inter, Arial, sans-serif" font-size="12" font-weight="800" fill="#6b7785">SUMMARY</text>
  <text x="1088" y="352" font-family="Inter, Arial, sans-serif" font-size="15" font-weight="700" fill="#17202a">A compact story block explains why</text>
  <text x="1088" y="374" font-family="Inter, Arial, sans-serif" font-size="15" font-weight="700" fill="#17202a">this event matters before media or</text>
  <text x="1088" y="396" font-family="Inter, Arial, sans-serif" font-size="15" font-weight="700" fill="#17202a">source details compete for attention.</text>

  <rect x="1066" y="444" width="326" height="112" rx="8" fill="#fff7f4" stroke="#efc8be"/>
  <text x="1088" y="474" font-family="Inter, Arial, sans-serif" font-size="12" font-weight="800" fill="#bb3f22">SIGNIFICANCE</text>
  <text x="1088" y="504" font-family="Inter, Arial, sans-serif" font-size="14" font-weight="700" fill="#7e2d19">The selected interpretation stays</text>
  <text x="1088" y="526" font-family="Inter, Arial, sans-serif" font-size="14" font-weight="700" fill="#7e2d19">readable without scrolling past media.</text>

  <rect x="1066" y="572" width="326" height="84" rx="8" fill="#ffffff" stroke="#d9e0e7"/>
  <text x="1088" y="602" font-family="Inter, Arial, sans-serif" font-size="12" font-weight="800" fill="#6b7785">MEDIA SUMMARY</text>
  <rect x="1088" y="618" width="62" height="24" rx="12" fill="#eef2f5"/>
  <text x="1106" y="635" font-family="Inter, Arial, sans-serif" font-size="11" font-weight="800" fill="#536170">3 images</text>
  <rect x="1160" y="618" width="58" height="24" rx="12" fill="#eef2f5"/>
  <text x="1178" y="635" font-family="Inter, Arial, sans-serif" font-size="11" font-weight="800" fill="#536170">2 links</text>
  <text x="1240" y="635" font-family="Inter, Arial, sans-serif" font-size="11" font-weight="800" fill="#e4572e">Open Media tab</text>

  <rect x="1066" y="672" width="326" height="128" rx="8" fill="#ffffff" stroke="#d9e0e7"/>
  <text x="1088" y="702" font-family="Inter, Arial, sans-serif" font-size="12" font-weight="800" fill="#6b7785">CONNECTIONS</text>
  <text x="1088" y="732" font-family="Inter, Arial, sans-serif" font-size="14" font-weight="700" fill="#17202a">Connected to early block parties</text>
  <text x="1088" y="756" font-family="Inter, Arial, sans-serif" font-size="14" font-weight="700" fill="#17202a">and sound-system practice.</text>
  <line x1="1088" y1="778" x2="1370" y2="778" stroke="#eef2f5"/>
  <text x="1088" y="798" font-family="Inter, Arial, sans-serif" font-size="11" font-weight="800" fill="#6b7785">PREV / NEXT EVENT CONTROLS</text>

  <rect x="1070" y="822" width="318" height="30" rx="8" fill="#eef2f5"/>
  <text x="1090" y="842" font-family="Inter, Arial, sans-serif" font-size="12" font-weight="800" fill="#536170">Inspector content scrolls inside this column</text>
</svg>
