<svg xmlns="http://www.w3.org/2000/svg" width="1440" height="900" viewBox="0 0 1440 900" role="img" aria-labelledby="title desc">
  <title id="title">Desktop overlay navigation drawer route list mockup</title>
  <desc id="desc">A SoundAtlas desktop screen with the overlay navigation drawer open to an in-drawer route list backed by real route data.</desc>

  <rect width="1440" height="900" fill="#eef2f5"/>
  <rect x="24" y="24" width="1392" height="852" rx="8" fill="#ffffff" stroke="#d9e0e7"/>
  <rect x="24" y="24" width="1392" height="76" rx="8" fill="#ffffff"/>
  <text x="64" y="54" font-family="Inter, Arial, sans-serif" font-size="12" font-weight="800" fill="#6b7785">SOUNDATLAS</text>
  <text x="64" y="80" font-family="Inter, Arial, sans-serif" font-size="22" font-weight="800" fill="#17202a">New York 1965-1985</text>
  <rect x="24" y="100" width="1040" height="616" fill="#dfe9e2"/>
  <path d="M110 610 C210 520 260 470 330 500 C410 535 470 405 580 430 C720 465 820 340 1010 390" fill="none" stroke="#8ca79a" stroke-width="18" opacity=".55"/>
  <circle cx="330" cy="500" r="13" fill="#e4572e" stroke="#ffffff" stroke-width="4"/>
  <circle cx="580" cy="430" r="10" fill="#314151" stroke="#ffffff" stroke-width="4"/>
  <circle cx="760" cy="390" r="10" fill="#314151" stroke="#ffffff" stroke-width="4"/>
  <rect x="64" y="616" width="360" height="74" rx="8" fill="#ffffff" stroke="#d9e0e7"/>
  <rect x="64" y="616" width="6" height="74" rx="3" fill="#e4572e"/>
  <text x="88" y="644" font-family="Inter, Arial, sans-serif" font-size="11" font-weight="800" fill="#6b7785">SELECTED PLACE</text>
  <text x="88" y="668" font-family="Inter, Arial, sans-serif" font-size="18" font-weight="800" fill="#17202a">1520 Sedgwick Avenue</text>
  <rect x="1064" y="100" width="352" height="776" fill="#fbfcfd" stroke="#d9e0e7"/>
  <rect x="1092" y="132" width="296" height="180" rx="8" fill="#ffffff" stroke="#e0e6ec"/>
  <text x="1116" y="166" font-family="Inter, Arial, sans-serif" font-size="12" font-weight="800" fill="#6b7785">SELECTED EVENT</text>
  <text x="1116" y="202" font-family="Inter, Arial, sans-serif" font-size="24" font-weight="800" fill="#17202a">DJ Kool Herc's party</text>
  <rect x="24" y="716" width="1040" height="160" fill="#ffffff" stroke="#d9e0e7"/>
  <line x1="84" y1="796" x2="1004" y2="796" stroke="#cfd7df" stroke-width="4"/>
  <circle cx="220" cy="796" r="12" fill="#e4572e"/>
  <circle cx="420" cy="796" r="9" fill="#314151"/>
  <circle cx="730" cy="796" r="9" fill="#314151"/>

  <rect width="1440" height="900" fill="#17202a" opacity=".36"/>

  <rect x="0" y="0" width="360" height="900" fill="#ffffff"/>
  <rect x="0" y="0" width="360" height="900" fill="none" stroke="#cfd7df"/>

  <rect x="20" y="20" width="32" height="32" rx="8" fill="#ffffff" stroke="#d9e0e7"/>
  <path d="M39 29 L31 36 L39 43" fill="none" stroke="#314151" stroke-width="2" stroke-linecap="round" stroke-linejoin="round"/>
  <text x="64" y="34" font-family="Inter, Arial, sans-serif" font-size="11" font-weight="800" fill="#6b7785">ROUTES</text>
  <text x="64" y="60" font-family="Inter, Arial, sans-serif" font-size="18" font-weight="800" fill="#17202a">Choose active route</text>
  <rect x="300" y="20" width="32" height="32" rx="8" fill="#f3f6f8" stroke="#d9e0e7"/>
  <path d="M310 30 L322 42 M322 30 L310 42" stroke="#314151" stroke-width="2" stroke-linecap="round"/>

  <text x="24" y="112" font-family="Inter, Arial, sans-serif" font-size="11" font-weight="800" fill="#6b7785">AVAILABLE ROUTES</text>

  <rect x="16" y="132" width="328" height="82" rx="8" fill="#fff7f4" stroke="#efc8be"/>
  <rect x="16" y="132" width="5" height="82" rx="2.5" fill="#e4572e"/>
  <circle cx="42" cy="160" r="9" fill="#e4572e"/>
  <text x="64" y="158" font-family="Inter, Arial, sans-serif" font-size="14" font-weight="800" fill="#7e2d19">Birth of Hip-Hop</text>
  <text x="64" y="180" font-family="Inter, Arial, sans-serif" font-size="12" font-weight="700" fill="#536170">1970-1985 · 9 events</text>
  <text x="64" y="199" font-family="Inter, Arial, sans-serif" font-size="11" font-weight="800" fill="#bb3f22">ACTIVE ROUTE</text>

  <rect x="16" y="224" width="328" height="70" rx="8" fill="#ffffff" stroke="#d9e0e7"/>
  <rect x="16" y="224" width="5" height="70" rx="2.5" fill="#6a7fdb"/>
  <circle cx="42" cy="252" r="9" fill="#6a7fdb"/>
  <text x="64" y="250" font-family="Inter, Arial, sans-serif" font-size="14" font-weight="800" fill="#17202a">Disco to Dance Music</text>
  <text x="64" y="272" font-family="Inter, Arial, sans-serif" font-size="12" font-weight="700" fill="#536170">1973-1985 · club culture / dance music</text>

  <rect x="16" y="304" width="328" height="70" rx="8" fill="#ffffff" stroke="#d9e0e7"/>
  <rect x="16" y="304" width="5" height="70" rx="2.5" fill="#2a9d8f"/>
  <circle cx="42" cy="332" r="9" fill="#2a9d8f"/>
  <text x="64" y="330" font-family="Inter, Arial, sans-serif" font-size="14" font-weight="800" fill="#17202a">Punk &amp; New Wave</text>
  <text x="64" y="352" font-family="Inter, Arial, sans-serif" font-size="12" font-weight="700" fill="#536170">1973-1982 · Bowery / downtown scenes</text>

  <rect x="16" y="384" width="328" height="70" rx="8" fill="#ffffff" stroke="#d9e0e7"/>
  <rect x="16" y="384" width="5" height="70" rx="2.5" fill="#f4a261"/>
  <circle cx="42" cy="412" r="9" fill="#f4a261"/>
  <text x="64" y="410" font-family="Inter, Arial, sans-serif" font-size="14" font-weight="800" fill="#17202a">Salsa &amp; Migration</text>
  <text x="64" y="432" font-family="Inter, Arial, sans-serif" font-size="12" font-weight="700" fill="#536170">1965-1980 · Latin New York</text>

  <rect x="16" y="464" width="328" height="70" rx="8" fill="#ffffff" stroke="#d9e0e7"/>
  <rect x="16" y="464" width="5" height="70" rx="2.5" fill="#8d6e63"/>
  <circle cx="42" cy="492" r="9" fill="#8d6e63"/>
  <text x="64" y="490" font-family="Inter, Arial, sans-serif" font-size="14" font-weight="800" fill="#17202a">Downtown Experiment</text>
  <text x="64" y="512" font-family="Inter, Arial, sans-serif" font-size="12" font-weight="700" fill="#536170">1970-1985 · loft jazz / no wave / art</text>

  <rect x="16" y="560" width="328" height="74" rx="8" fill="#f8fafb" stroke="#d9e0e7" stroke-dasharray="5 5"/>
  <text x="36" y="590" font-family="Inter, Arial, sans-serif" font-size="12" font-weight="800" fill="#6b7785">EMPTY STATE PATTERN</text>
  <text x="36" y="614" font-family="Inter, Arial, sans-serif" font-size="13" font-weight="700" fill="#536170">If no routes load: "No routes loaded."</text>

  <line x1="20" y1="808" x2="340" y2="808" stroke="#d9e0e7"/>
  <text x="24" y="838" font-family="Inter, Arial, sans-serif" font-size="11" font-weight="800" fill="#6b7785">ACCESS</text>
  <text x="24" y="864" font-family="Inter, Arial, sans-serif" font-size="14" font-weight="800" fill="#314151">Public explorer</text>
</svg>
