<svg xmlns="http://www.w3.org/2000/svg" width="1440" height="900" viewBox="0 0 1440 900" role="img" aria-labelledby="title desc">
  <title id="title">SoundAtlas non map first concept: Chronology Workbench</title>
  <desc id="desc">A desktop concept where chronology and event sequence are the main surface, with inspector and mini map as supporting context.</desc>

  <rect width="1440" height="900" fill="#eef2f5"/>
  <rect x="24" y="24" width="1392" height="852" rx="8" fill="#ffffff" stroke="#d9e0e7"/>
  <rect x="24" y="24" width="1392" height="72" rx="8" fill="#ffffff"/>
  <line x1="24" y1="96" x2="1416" y2="96" stroke="#d9e0e7"/>
  <rect x="48" y="44" width="36" height="32" rx="8" fill="#ffffff" stroke="#cfd7df"/>
  <path d="M59 53 H73 M59 60 H73 M59 67 H73" stroke="#314151" stroke-width="2" stroke-linecap="round"/>
  <text x="104" y="54" font-family="Inter, Arial, sans-serif" font-size="11" font-weight="800" fill="#6b7785">SOUNDATLAS</text>
  <text x="104" y="78" font-family="Inter, Arial, sans-serif" font-size="21" font-weight="800" fill="#17202a">Chronology Workbench</text>
  <text x="420" y="66" font-family="Inter, Arial, sans-serif" font-size="13" font-weight="800" fill="#536170">Birth of Hip-Hop · 1967 prehistory to 1985</text>

  <rect x="24" y="96" width="990" height="584" fill="#fbfcfd"/>
  <text x="62" y="142" font-family="Inter, Arial, sans-serif" font-size="11" font-weight="800" fill="#6b7785">PRIMARY SURFACE: TIME</text>
  <rect x="62" y="168" width="900" height="426" rx="8" fill="#ffffff" stroke="#d9e0e7"/>
  <line x1="106" y1="512" x2="920" y2="512" stroke="#cfd7df" stroke-width="4"/>
  <text x="96" y="550" font-family="Inter, Arial, sans-serif" font-size="11" font-weight="800" fill="#6b7785">1967</text>
  <text x="250" y="550" font-family="Inter, Arial, sans-serif" font-size="11" font-weight="800" fill="#6b7785">1973</text>
  <text x="470" y="550" font-family="Inter, Arial, sans-serif" font-size="11" font-weight="800" fill="#6b7785">1977</text>
  <text x="700" y="550" font-family="Inter, Arial, sans-serif" font-size="11" font-weight="800" fill="#6b7785">1982</text>
  <text x="880" y="550" font-family="Inter, Arial, sans-serif" font-size="11" font-weight="800" fill="#6b7785">1985</text>
  <line x1="268" y1="200" x2="268" y2="512" stroke="#e4572e" stroke-width="2"/>
  <rect x="226" y="224" width="224" height="74" rx="8" fill="#fff7f4" stroke="#efc8be"/>
  <rect x="226" y="224" width="5" height="74" rx="2.5" fill="#e4572e"/>
  <text x="248" y="254" font-family="Inter, Arial, sans-serif" font-size="14" font-weight="800" fill="#7e2d19">Back-to-school party</text>
  <text x="248" y="278" font-family="Inter, Arial, sans-serif" font-size="12" font-weight="700" fill="#bb3f22">Selected · media 3 · sources 2</text>
  <rect x="112" y="340" width="176" height="54" rx="8" fill="#ffffff" stroke="#d9e0e7"/>
  <text x="134" y="373" font-family="Inter, Arial, sans-serif" font-size="13" font-weight="800" fill="#17202a">Prehistory context</text>
  <rect x="428" y="348" width="190" height="54" rx="8" fill="#ffffff" stroke="#d9e0e7"/>
  <text x="450" y="381" font-family="Inter, Arial, sans-serif" font-size="13" font-weight="800" fill="#17202a">Blackout and parties</text>
  <rect x="660" y="256" width="180" height="54" rx="8" fill="#ffffff" stroke="#d9e0e7"/>
  <text x="682" y="289" font-family="Inter, Arial, sans-serif" font-size="13" font-weight="800" fill="#17202a">Records spread out</text>
  <text x="62" y="632" font-family="Inter, Arial, sans-serif" font-size="12" font-weight="700" fill="#536170">Timeline becomes the main exploratory canvas with room for ranges, density, media indicators, and prehistory.</text>

  <rect x="24" y="680" width="990" height="196" fill="#ffffff" stroke="#d9e0e7"/>
  <text x="62" y="724" font-family="Inter, Arial, sans-serif" font-size="11" font-weight="800" fill="#6b7785">SECONDARY PLACE CONTEXT</text>
  <rect x="62" y="746" width="250" height="92" rx="8" fill="#dfe9e2" stroke="#d9e0e7"/>
  <path d="M88 816 C126 782 166 794 198 768 C236 738 272 758 298 748" fill="none" stroke="#8ca79a" stroke-width="8" opacity=".55"/>
  <circle cx="198" cy="768" r="9" fill="#e4572e" stroke="#ffffff" stroke-width="3"/>
  <rect x="342" y="746" width="238" height="92" rx="8" fill="#ffffff" stroke="#d9e0e7"/>
  <text x="366" y="782" font-family="Inter, Arial, sans-serif" font-size="14" font-weight="800" fill="#17202a">Places list</text>
  <text x="366" y="810" font-family="Inter, Arial, sans-serif" font-size="12" font-weight="700" fill="#536170">Selected place and nearby events</text>

  <rect x="1014" y="96" width="402" height="780" fill="#fbfcfd" stroke="#d9e0e7"/>
  <rect x="1040" y="124" width="350" height="96" rx="8" fill="#ffffff" stroke="#d9e0e7"/>
  <text x="1064" y="154" font-family="Inter, Arial, sans-serif" font-size="11" font-weight="800" fill="#6b7785">EVENT INSPECTOR</text>
  <text x="1064" y="182" font-family="Inter, Arial, sans-serif" font-size="20" font-weight="800" fill="#17202a">DJ Kool Herc's party</text>
  <text x="1064" y="204" font-family="Inter, Arial, sans-serif" font-size="12" font-weight="700" fill="#536170">Selected from chronology</text>
  <rect x="1040" y="240" width="350" height="42" rx="8" fill="#eef2f5"/>
  <rect x="1044" y="244" width="108" height="34" rx="7" fill="#ffffff" stroke="#d9e0e7"/>
  <text x="1080" y="266" font-family="Inter, Arial, sans-serif" font-size="12" font-weight="800" fill="#17202a">Story</text>
  <text x="1198" y="266" font-family="Inter, Arial, sans-serif" font-size="12" font-weight="800" fill="#536170">Media</text>
  <text x="1310" y="266" font-family="Inter, Arial, sans-serif" font-size="12" font-weight="800" fill="#536170">Sources</text>
  <rect x="1040" y="306" width="350" height="148" rx="8" fill="#ffffff" stroke="#d9e0e7"/>
  <text x="1064" y="340" font-family="Inter, Arial, sans-serif" font-size="12" font-weight="800" fill="#6b7785">WHY THIS MOMENT MATTERS</text>
  <line x1="1064" y1="370" x2="1362" y2="370" stroke="#d9e0e7"/>
  <line x1="1064" y1="404" x2="1338" y2="404" stroke="#d9e0e7"/>
  <rect x="1040" y="482" width="350" height="126" rx="8" fill="#fff7f4" stroke="#efc8be"/>
  <text x="1064" y="516" font-family="Inter, Arial, sans-serif" font-size="12" font-weight="800" fill="#bb3f22">SEQUENCE INSIGHT</text>
  <text x="1064" y="548" font-family="Inter, Arial, sans-serif" font-size="14" font-weight="700" fill="#7e2d19">Shows what came before and what</text>
  <text x="1064" y="572" font-family="Inter, Arial, sans-serif" font-size="14" font-weight="700" fill="#7e2d19">the selected event influenced next.</text>
  <rect x="1040" y="638" width="350" height="108" rx="8" fill="#ffffff" stroke="#d9e0e7"/>
  <text x="1064" y="672" font-family="Inter, Arial, sans-serif" font-size="12" font-weight="800" fill="#6b7785">MEDIA / SOURCE STATUS</text>
  <rect x="1064" y="694" width="76" height="24" rx="12" fill="#eef2f5"/>
  <text x="1082" y="711" font-family="Inter, Arial, sans-serif" font-size="11" font-weight="800" fill="#536170">3 images</text>
  <rect x="1150" y="694" width="74" height="24" rx="12" fill="#eef2f5"/>
  <text x="1166" y="711" font-family="Inter, Arial, sans-serif" font-size="11" font-weight="800" fill="#536170">2 media</text>
</svg>
